<?xml version="1.0" encoding="UTF-8" standalone="no"?>
<svg xmlns:xlink="http://www.w3.org/1999/xlink" height="247.3px" width="981.8px" xmlns="http://www.w3.org/2000/svg">
  <g transform="matrix(1.0, 0.0, 0.0, 1.0, 1.1, -9.8)">
    <path d="M837.9 89.3 L838.2 89.4 Q839.5 89.9 839.5 90.6 839.5 91.3 838.2 91.75 L838.15 91.8 841.2 118.55 847.2 114.85 850.15 91.9 849.85 91.8 Q848.5 91.35 848.5 90.75 848.5 90.15 849.85 89.7 L850.45 89.55 850.75 86.9 855.8 86.9 856.05 89.6 856.35 89.7 Q857.7 90.15 857.7 90.75 857.7 91.35 856.35 91.8 L856.25 91.85 859.25 126.75 880.9 113.4 880.9 132.75 912.25 113.45 912.25 132.75 943.6 113.45 943.6 207.45 942.4 207.45 942.4 218.3 48.2 218.3 48.2 218.0 0.0 218.0 0.0 166.45 4.65 166.45 4.65 127.75 11.7 127.75 11.7 166.45 15.2 166.45 15.2 119.55 19.9 119.55 19.9 166.45 22.25 166.45 22.25 114.85 29.3 114.85 29.3 121.9 39.85 121.9 39.85 166.45 41.0 166.45 41.0 114.85 45.7 114.85 45.7 166.45 50.4 166.45 50.4 110.15 59.75 110.15 59.75 166.45 66.8 166.45 66.8 100.8 79.7 100.8 79.7 166.45 83.2 166.45 83.2 109.0 98.45 109.0 98.45 166.45 99.6 166.45 99.6 97.3 116.0 97.3 116.0 166.45 120.7 166.45 120.7 85.55 131.25 85.55 131.25 166.45 137.35 166.45 137.35 72.45 157.85 72.45 157.85 61.6 181.95 61.6 181.95 77.25 204.85 77.25 204.85 51.95 219.3 51.95 219.3 166.45 225.35 166.45 225.35 82.1 257.9 82.1 257.9 166.45 259.1 166.45 259.1 37.5 294.05 37.5 294.05 166.45 321.75 166.45 321.75 62.8 326.95 62.8 326.95 59.15 331.65 59.15 331.65 56.2 336.4 56.2 336.4 53.85 340.35 53.85 340.35 51.45 344.65 51.45 344.65 48.7 349.35 48.7 349.35 45.15 359.6 45.15 359.6 48.7 365.3 48.7 365.3 51.45 367.85 51.45 367.85 53.85 372.0 53.85 372.0 56.2 376.5 56.2 376.5 59.15 381.65 59.15 381.65 62.8 386.85 62.8 386.85 76.05 401.3 76.05 401.3 60.4 414.55 60.4 414.55 43.55 430.2 43.55 430.2 76.05 441.05 76.05 441.05 37.5 491.7 47.15 491.7 73.65 509.75 73.65 509.75 9.8 521.8 9.8 521.8 55.6 538.7 55.6 538.7 41.1 556.75 29.05 556.75 13.4 572.45 13.4 572.45 47.15 595.35 59.2 595.35 33.9 612.2 33.9 612.2 50.75 627.85 50.75 627.85 166.45 637.5 166.45 637.5 37.5 678.5 47.15 678.5 67.65 706.2 58.0 706.2 166.45 713.45 166.45 713.45 33.9 730.3 33.9 730.3 166.45 739.95 166.45 739.95 53.15 759.25 53.15 759.25 166.45 765.25 166.45 765.25 86.9 779.7 86.9 779.7 166.45 786.85 166.45 786.85 132.7 818.2 113.4 818.2 132.7 829.15 125.95 832.3 91.85 832.05 91.75 Q830.8 91.3 830.8 90.6 830.8 89.9 832.05 89.4 L832.55 89.25 832.75 86.9 837.6 86.9 837.9 89.3" fill="#112233" fill-rule="evenodd" stroke="none"/>
    <path d="M937.5 180.05 L937.5 149.9 955.2 149.9 955.2 188.7 956.35 188.7 956.35 163.2 968.5 163.2 968.5 188.7 971.85 188.7 971.85 155.45 980.7 155.45 980.7 234.1 -1.1 234.1 -1.1 144.35 58.05 144.35 57.85 129.45 74.7 106.55 74.7 61.95 103.65 61.95 103.65 106.55 127.45 106.55 127.7 107.3 127.7 106.55 127.7 107.3 127.45 106.55 127.7 106.55 154.25 106.55 154.25 123.4 163.9 123.4 169.9 123.4 201.25 123.4 201.25 188.7 207.25 188.7 207.25 151.15 294.05 151.15 294.05 188.7 300.05 188.7 300.05 108.95 Q357.45 142.0 420.6 151.15 L419.9 188.7 420.6 188.7 420.6 151.15 420.6 122.2 441.05 122.2 441.05 188.7 443.5 188.7 443.5 78.8 455.55 78.8 455.55 188.7 459.15 188.7 459.15 92.1 483.25 92.1 483.25 188.7 490.5 188.7 490.5 137.85 533.85 137.85 533.85 188.7 542.3 188.7 542.3 112.55 560.4 112.55 560.4 188.7 566.4 188.7 566.4 74.0 603.75 86.05 603.75 188.7 612.2 188.7 612.2 92.1 639.9 92.1 639.9 188.7 648.35 188.7 648.35 127.05 690.55 127.05 690.55 188.7 700.2 188.7 700.2 53.5 715.85 53.5 715.85 188.7 723.05 188.7 723.05 110.15 768.85 110.15 768.85 188.7 779.7 188.7 779.7 139.1 800.2 139.1 800.2 188.7 812.25 188.7 812.25 153.55 833.95 153.55 833.95 188.7 843.6 188.7 843.6 180.05 876.55 180.05 876.55 147.7 908.7 147.7 908.7 180.05 909.8 180.05 909.8 124.4 927.5 124.4 927.5 134.4 936.4 134.4 936.4 180.05 937.5 180.05 M163.9 105.75 L162.3 105.75 162.3 98.3 163.9 98.3 167.1 98.3 167.25 98.3 167.25 98.55 167.25 104.9 167.25 105.75 166.55 105.75 163.9 105.75 M177.4 96.9 L177.4 96.4 177.4 93.3 177.4 91.95 184.65 91.95 184.65 98.1 177.4 98.1 177.4 96.9" fill="#336688" fill-rule="evenodd" stroke="none"/>
    <path d="M937.5 180.05 L936.4 180.05 M909.8 180.05 L908.7 180.05 M876.55 180.05 L843.6 180.05 843.6 188.7 M833.95 188.7 L833.95 153.55 812.25 153.55 812.25 188.7 M800.2 188.7 L800.2 139.1 779.7 139.1 779.7 188.7 M768.85 188.7 L768.85 110.15 723.05 110.15 723.05 188.7 M715.85 188.7 L715.85 53.5 700.2 53.5 700.2 188.7 M690.55 188.7 L690.55 127.05 648.35 127.05 648.35 188.7 M639.9 188.7 L639.9 92.1 612.2 92.1 612.2 188.7 M603.75 188.7 L603.75 86.05 566.4 74.0 566.4 188.7 M560.4 188.7 L560.4 112.55 542.3 112.55 542.3 188.7 M533.85 188.7 L533.85 137.85 490.5 137.85 490.5 188.7 M483.25 188.7 L483.25 92.1 459.15 92.1 459.15 188.7 M455.55 188.7 L455.55 78.8 443.5 78.8 443.5 188.7 M441.05 188.7 L441.05 122.2 420.6 122.2 420.6 151.15 420.6 188.7 M419.9 188.7 L420.6 151.15 Q357.45 142.0 300.05 108.95 L300.05 188.7 M294.05 188.7 L294.05 151.15 207.25 151.15 207.25 188.7 M127.7 106.55 L127.7 107.3 127.45 106.55 127.45 96.95 123.25 96.95 127.25 93.3 M169.9 87.25 L163.9 81.25 163.9 93.3 165.1 93.3 169.9 88.45 169.9 87.25 M165.1 93.3 L163.9 94.5 164.3 94.95 165.6 93.45 165.7 93.3 165.1 93.3 M163.9 94.5 L163.9 95.35 164.3 94.95 165.9 96.9 169.9 96.9 169.9 96.1 169.15 96.55 165.6 93.45 M163.9 93.3 L163.9 94.5 M163.9 98.3 L163.9 96.9 162.35 96.9 162.25 96.9 154.1 96.9 153.8 96.9 139.5 96.9 139.3 96.9 132.55 96.9 M163.9 105.75 L162.3 105.75 162.3 98.3 163.9 98.3 167.1 98.3 165.9 96.9 163.9 96.9 163.9 95.35 162.35 96.9 M169.9 96.1 L169.9 93.3 165.7 93.3 M167.1 98.3 L167.25 98.3 167.25 98.55 169.9 101.7 169.9 96.9 177.4 96.9 177.4 96.4 174.05 93.35 169.9 96.1 M169.9 93.3 L169.9 88.45 M177.4 93.3 L177.4 91.95 184.65 91.95 184.65 98.1 177.4 98.1 177.4 96.9 M177.4 96.4 L177.4 93.3 174.15 93.3 174.05 93.35 M174.15 93.3 L169.9 93.3 M166.55 105.75 L163.9 105.75 163.9 108.95 166.55 105.75 167.25 105.75 167.25 104.9 167.25 98.55 M163.9 108.95 L169.9 116.2 169.9 101.7 167.25 104.9 M169.9 123.4 L169.9 116.2 163.9 123.4 163.9 108.95 M127.95 96.95 L128.0 93.95 127.45 93.5 127.45 96.95 127.95 96.95 131.55 96.9 128.0 93.95 M131.55 96.9 L131.85 97.15 135.5 93.7 139.3 96.9 M150.7 93.4 L150.8 93.3 143.7 93.3 146.95 96.55 150.7 93.4 153.8 96.9 M154.1 96.9 L157.9 93.7 162.25 96.9 M139.5 96.9 L143.7 93.3 127.75 93.3 M127.7 106.55 L127.95 96.95 M163.9 93.3 L150.8 93.3" fill="none" stroke="#336688" stroke-linecap="round" stroke-linejoin="round" stroke-width="1.0"/>
    <path d="M886.95 223.0 L892.05 223.0 892.05 188.4 894.15 188.4 894.15 183.0 896.5 183.25 896.5 188.4 898.7 188.4 898.7 183.0 900.9 183.25 900.9 188.4 928.6 188.4 928.6 199.45 936.4 199.45 936.4 188.4 939.65 188.4 939.65 183.0 941.85 183.25 941.85 188.4 944.05 188.4 944.05 183.0 946.25 183.25 946.25 188.4 974.05 188.4 974.05 199.45 980.7 199.45 980.7 257.1 -1.1 257.1 -1.1 169.55 73.15 169.55 73.15 223.0 77.1 223.0 77.1 142.25 112.65 142.25 112.65 136.2 116.25 136.5 116.25 142.25 121.05 142.25 121.05 133.8 124.65 134.1 124.65 142.25 128.95 142.25 128.95 223.0 148.2 223.0 148.2 149.45 178.35 149.45 178.35 223.0 189.4 223.0 189.4 121.75 205.65 121.75 205.65 105.45 211.2 105.75 211.2 121.75 236.25 121.75 267.15 121.75 267.15 110.25 272.55 110.55 272.55 121.75 273.15 121.75 273.15 115.05 278.7 115.35 278.7 121.75 288.0 121.75 288.0 220.55 292.85 220.55 292.85 121.75 293.25 121.75 293.25 102.9 338.05 70.25 338.65 69.8 339.3 69.35 339.85 68.9 339.85 171.15 346.2 171.15 346.2 170.65 349.5 170.65 349.5 171.15 351.7 171.15 351.7 170.65 355.0 170.65 355.0 171.15 402.7 171.15 402.7 162.8 406.0 163.05 406.0 171.15 410.4 171.15 410.4 162.8 413.85 163.05 413.85 171.15 431.35 171.15 431.35 223.0 431.45 223.0 431.45 103.65 467.55 103.65 467.55 223.0 467.6 223.0 467.6 66.3 493.2 66.3 493.2 120.6 493.2 223.55 500.1 223.55 500.1 167.9 512.2 157.9 512.2 131.4 531.45 114.9 531.45 85.6 547.1 67.5 547.1 95.25 558.3 120.4 558.3 223.0 561.9 223.0 561.9 150.65 569.5 150.65 569.5 144.2 571.7 144.5 571.7 150.65 572.8 150.65 572.8 144.2 575.0 144.5 575.0 150.65 577.2 150.65 577.2 144.2 579.4 144.5 579.4 150.65 606.15 150.65 606.15 150.7 630.55 150.7 630.55 150.65 633.9 150.65 633.9 108.5 665.9 108.5 665.9 101.05 668.1 101.3 668.1 108.5 674.85 108.5 674.85 223.0 700.75 223.0 700.75 206.35 726.65 189.7 726.65 164.35 727.35 164.95 727.35 157.3 730.65 157.55 730.65 167.6 749.6 182.85 758.1 189.7 758.1 223.0 766.45 223.0 766.45 200.75 Q806.6 169.6 886.95 167.55 L886.95 223.0 M665.6 166.45 L667.95 166.45 667.95 159.45 665.6 159.45 665.6 166.45 M665.6 180.45 L667.95 180.45 667.95 173.45 665.6 173.45 665.6 180.45 M733.65 197.0 L731.3 197.0 731.3 204.0 733.65 204.0 733.65 197.0 M766.45 223.0 L766.45 225.4 886.95 225.4 766.45 225.4 766.45 223.0 M516.9 184.35 L516.0 184.35 516.0 187.45 516.9 187.45 516.9 184.35 M516.9 180.45 L516.9 177.35 516.0 177.35 516.0 180.45 516.9 180.45 M516.9 170.35 L516.0 170.35 516.0 173.45 516.9 173.45 516.9 170.35 M516.9 139.9 L517.8 139.9 517.8 136.8 516.9 136.8 516.9 139.9 M516.9 148.4 L517.8 148.4 517.8 145.3 516.9 145.3 516.9 148.4 M547.9 133.5 L548.8 133.5 548.8 130.4 547.9 130.4 547.9 133.5 M547.9 143.0 L548.8 143.0 548.8 139.9 547.9 139.9 547.9 143.0 M533.55 142.2 L532.65 142.2 532.65 145.3 533.55 145.3 533.55 142.2 M547.9 120.3 L547.9 123.4 548.8 123.4 548.8 120.3 547.9 120.3 M534.0 86.7 L533.1 86.7 533.1 89.8 534.0 89.8 534.0 86.7 M533.55 97.05 L534.45 97.05 534.45 93.95 533.55 93.95 533.55 97.05 M488.0 85.25 L488.0 78.25 485.65 78.25 485.65 85.25 488.0 85.25 M649.55 203.5 L649.55 196.5 647.2 196.5 647.2 203.5 649.55 203.5 M565.85 158.55 L565.85 164.55 585.85 164.55 565.85 164.55 565.85 158.55 M532.65 149.8 L532.65 152.9 533.55 152.9 533.55 149.8 532.65 149.8 M533.55 161.05 L533.55 157.95 532.65 157.95 532.65 161.05 533.55 161.05 M565.85 184.85 L565.85 190.85 585.85 190.85 565.85 190.85 565.85 184.85 M552.4 197.7 L551.5 197.7 551.5 200.8 552.4 200.8 552.4 197.7 M551.5 193.45 L552.4 193.45 552.4 190.35 551.5 190.35 551.5 193.45 M565.85 171.7 L565.85 177.7 585.85 177.7 565.85 177.7 565.85 171.7 M644.5 123.4 L642.15 123.4 642.15 130.4 644.5 130.4 644.5 123.4 M612.7 158.55 L612.7 164.55 632.7 164.55 612.7 164.55 612.7 158.55 M612.7 184.85 L612.7 190.85 632.7 190.85 612.7 190.85 612.7 184.85 M612.7 171.7 L612.7 177.7 632.7 177.7 612.7 177.7 612.7 171.7 M589.2 158.55 L589.2 164.55 609.2 164.55 589.2 164.55 589.2 158.55 M589.2 184.85 L589.2 190.85 609.2 190.85 589.2 190.85 589.2 184.85 M589.2 171.7 L589.2 177.7 609.2 177.7 589.2 177.7 589.2 171.7 M472.6 95.35 L470.25 95.35 470.25 102.35 472.6 102.35 472.6 95.35 M371.7 204.65 L379.35 204.65 379.35 201.95 371.7 201.95 371.7 204.65 M365.4 204.65 L365.4 201.95 357.75 201.95 357.75 204.65 365.4 204.65 M410.35 216.65 L410.35 213.95 402.7 213.95 402.7 216.65 410.35 216.65 M461.35 184.7 L463.7 184.7 463.7 177.7 461.35 177.7 461.35 184.7 M443.6 168.4 L443.6 175.4 445.95 175.4 445.95 168.4 443.6 168.4 M414.8 190.35 L414.8 193.05 422.45 193.05 422.45 190.35 414.8 190.35 M433.35 114.3 L435.7 114.3 435.7 107.3 433.35 107.3 433.35 114.3 M463.7 142.2 L461.35 142.2 461.35 149.2 463.7 149.2 463.7 142.2 M457.65 142.2 L455.3 142.2 455.3 149.2 457.65 149.2 457.65 142.2 M399.55 190.35 L399.55 193.05 407.2 193.05 407.2 190.35 399.55 190.35 M353.5 183.7 L353.5 181.0 345.85 181.0 345.85 183.7 353.5 183.7 M565.85 197.5 L565.85 203.5 585.85 203.5 565.85 203.5 565.85 197.5 M565.85 210.65 L565.85 216.65 585.85 216.65 565.85 216.65 565.85 210.65 M589.2 197.5 L589.2 203.5 609.2 203.5 589.2 203.5 589.2 197.5 M589.2 210.65 L589.2 216.65 609.2 216.65 589.2 216.65 589.2 210.65 M612.7 210.65 L612.7 216.65 632.7 216.65 612.7 216.65 612.7 210.65 M612.7 197.5 L612.7 203.5 632.7 203.5 612.7 203.5 612.7 197.5 M321.4 91.95 L319.05 91.95 319.05 98.95 321.4 98.95 321.4 91.95 M316.35 91.95 L314.0 91.95 314.0 98.95 316.35 98.95 316.35 91.95 M193.8 133.9 L193.8 139.9 213.8 139.9 193.8 139.9 193.8 133.9 M240.65 133.9 L240.65 139.9 260.65 139.9 240.65 139.9 240.65 133.9 M217.15 133.9 L217.15 139.9 237.15 139.9 217.15 139.9 217.15 133.9 M200.55 109.95 L200.55 121.65 196.95 121.35 196.95 109.65 200.55 109.95 M193.8 147.05 L193.8 153.05 213.8 153.05 193.8 153.05 193.8 147.05 M240.65 147.05 L240.65 153.05 260.65 153.05 240.65 153.05 240.65 147.05 M217.15 147.05 L217.15 153.05 237.15 153.05 217.15 153.05 217.15 147.05 M217.15 172.85 L217.15 178.85 237.15 178.85 217.15 178.85 217.15 172.85 M240.65 172.85 L240.65 178.85 260.65 178.85 240.65 178.85 240.65 172.85 M240.65 186.4 L240.65 192.4 260.65 192.4 240.65 192.4 240.65 186.4 M217.15 186.4 L217.15 192.4 237.15 192.4 217.15 192.4 217.15 186.4 M217.15 159.85 L217.15 165.85 237.15 165.85 217.15 165.85 217.15 159.85 M240.65 159.85 L240.65 165.85 260.65 165.85 240.65 165.85 240.65 159.85 M193.8 159.85 L193.8 165.85 213.8 165.85 193.8 165.85 193.8 159.85 M193.8 172.85 L193.8 178.85 213.8 178.85 193.8 178.85 193.8 172.85 M193.8 186.4 L193.8 192.4 213.8 192.4 193.8 192.4 193.8 186.4 M298.85 118.65 L296.5 118.65 296.5 125.65 298.85 125.65 298.85 118.65 M321.4 118.65 L319.05 118.65 319.05 125.65 321.4 125.65 321.4 118.65 M316.35 118.65 L314.0 118.65 314.0 125.65 316.35 125.65 316.35 118.65 M321.4 104.9 L319.05 104.9 319.05 111.9 321.4 111.9 321.4 104.9 M316.35 104.9 L314.0 104.9 314.0 111.9 316.35 111.9 316.35 104.9 M316.35 142.2 L314.0 142.2 314.0 149.2 316.35 149.2 316.35 142.2 M321.4 142.2 L319.05 142.2 319.05 149.2 321.4 149.2 321.4 142.2 M321.4 130.2 L319.05 130.2 319.05 137.2 321.4 137.2 321.4 130.2 M316.35 130.2 L314.0 130.2 314.0 137.2 316.35 137.2 316.35 130.2 M298.85 130.2 L296.5 130.2 296.5 137.2 298.85 137.2 298.85 130.2 M298.85 142.2 L296.5 142.2 296.5 149.2 298.85 149.2 298.85 142.2 M298.85 105.5 L296.5 105.5 296.5 112.5 298.85 112.5 298.85 105.5 M264.15 172.85 L264.15 178.85 284.15 178.85 264.15 178.85 264.15 172.85 M264.15 159.85 L264.15 165.85 284.15 165.85 264.15 165.85 264.15 159.85 M264.15 186.4 L264.15 192.4 284.15 192.4 264.15 192.4 264.15 186.4 M264.15 133.9 L264.15 139.9 284.15 139.9 264.15 139.9 264.15 133.9 M321.4 190.7 L319.05 190.7 319.05 197.7 321.4 197.7 321.4 190.7 M316.35 190.7 L314.0 190.7 314.0 197.7 316.35 197.7 316.35 190.7 M316.35 177.7 L314.0 177.7 314.0 184.7 316.35 184.7 316.35 177.7 M321.4 177.7 L319.05 177.7 319.05 184.7 321.4 184.7 321.4 177.7 M296.5 197.7 L298.85 197.7 298.85 190.7 296.5 190.7 296.5 197.7 M296.5 177.7 L296.5 184.7 298.85 184.7 298.85 177.7 296.5 177.7 M298.85 154.05 L296.5 154.05 296.5 161.05 298.85 161.05 298.85 154.05 M298.85 166.45 L296.5 166.45 296.5 173.45 298.85 173.45 298.85 166.45 M316.35 166.45 L314.0 166.45 314.0 173.45 316.35 173.45 316.35 166.45 M321.4 166.45 L319.05 166.45 319.05 173.45 321.4 173.45 321.4 166.45 M316.35 154.05 L314.0 154.05 314.0 161.05 316.35 161.05 316.35 154.05 M321.4 154.05 L319.05 154.05 319.05 161.05 321.4 161.05 321.4 154.05 M264.15 147.05 L264.15 153.05 284.15 153.05 264.15 153.05 264.15 147.05 M94.5 141.9 L94.5 130.2 98.1 130.5 98.1 142.2 94.5 141.9 M105.45 130.5 L105.45 142.2 101.7 141.9 101.7 130.2 105.45 130.5 M296.5 203.1 L296.5 210.1 298.85 210.1 298.85 203.1 296.5 203.1 M316.35 208.95 L316.35 201.95 314.0 201.95 314.0 208.95 316.35 208.95 M321.4 208.95 L321.4 201.95 319.05 201.95 319.05 208.95 321.4 208.95 M193.8 210.65 L193.8 216.65 213.8 216.65 193.8 216.65 193.8 210.65 M193.8 198.0 L193.8 204.0 213.8 204.0 193.8 204.0 193.8 198.0 M240.65 198.0 L240.65 204.0 260.65 204.0 240.65 204.0 240.65 198.0 M240.65 210.65 L240.65 216.65 260.65 216.65 240.65 216.65 240.65 210.65 M217.15 210.65 L217.15 216.65 237.15 216.65 217.15 216.65 217.15 210.65 M217.15 198.0 L217.15 204.0 237.15 204.0 217.15 204.0 217.15 198.0 M264.15 210.65 L264.15 216.65 284.15 216.65 264.15 216.65 264.15 210.65 M264.15 198.0 L264.15 204.0 284.15 204.0 264.15 204.0 264.15 198.0" fill="#7799ff" fill-rule="evenodd" stroke="none"/>
    <path d="M665.6 180.45 L665.6 173.45 667.95 173.45 667.95 180.45 665.6 180.45 M665.6 166.45 L665.6 159.45 667.95 159.45 667.95 166.45 665.6 166.45 M733.65 197.0 L733.65 204.0 731.3 204.0 731.3 197.0 733.65 197.0 M649.55 203.5 L647.2 203.5 647.2 196.5 649.55 196.5 649.55 203.5 M488.0 85.25 L485.65 85.25 485.65 78.25 488.0 78.25 488.0 85.25 M533.55 97.05 L533.55 93.95 534.45 93.95 534.45 97.05 533.55 97.05 M534.0 86.7 L534.0 89.8 533.1 89.8 533.1 86.7 534.0 86.7 M547.9 120.3 L548.8 120.3 548.8 123.4 547.9 123.4 547.9 120.3 M533.55 142.2 L533.55 145.3 532.65 145.3 532.65 142.2 533.55 142.2 M547.9 143.0 L547.9 139.9 548.8 139.9 548.8 143.0 547.9 143.0 M547.9 133.5 L547.9 130.4 548.8 130.4 548.8 133.5 547.9 133.5 M516.9 148.4 L516.9 145.3 517.8 145.3 517.8 148.4 516.9 148.4 M516.9 139.9 L516.9 136.8 517.8 136.8 517.8 139.9 516.9 139.9 M516.9 170.35 L516.9 173.45 516.0 173.45 516.0 170.35 516.9 170.35 M516.9 180.45 L516.0 180.45 516.0 177.35 516.9 177.35 516.9 180.45 M516.9 184.35 L516.9 187.45 516.0 187.45 516.0 184.35 516.9 184.35 M533.55 161.05 L532.65 161.05 532.65 157.95 533.55 157.95 533.55 161.05 M532.65 149.8 L533.55 149.8 533.55 152.9 532.65 152.9 532.65 149.8 M551.5 193.45 L551.5 190.35 552.4 190.35 552.4 193.45 551.5 193.45 M552.4 197.7 L552.4 200.8 551.5 200.8 551.5 197.7 552.4 197.7 M644.5 123.4 L644.5 130.4 642.15 130.4 642.15 123.4 644.5 123.4 M472.6 95.35 L472.6 102.35 470.25 102.35 470.25 95.35 472.6 95.35 M353.5 183.7 L345.85 183.7 345.85 181.0 353.5 181.0 353.5 183.7 M399.55 190.35 L407.2 190.35 407.2 193.05 399.55 193.05 399.55 190.35 M457.65 142.2 L457.65 149.2 455.3 149.2 455.3 142.2 457.65 142.2 M463.7 142.2 L463.7 149.2 461.35 149.2 461.35 142.2 463.7 142.2 M433.35 114.3 L433.35 107.3 435.7 107.3 435.7 114.3 433.35 114.3 M414.8 190.35 L422.45 190.35 422.45 193.05 414.8 193.05 414.8 190.35 M443.6 168.4 L445.95 168.4 445.95 175.4 443.6 175.4 443.6 168.4 M461.35 184.7 L461.35 177.7 463.7 177.7 463.7 184.7 461.35 184.7 M410.35 216.65 L402.7 216.65 402.7 213.95 410.35 213.95 410.35 216.65 M365.4 204.65 L357.75 204.65 357.75 201.95 365.4 201.95 365.4 204.65 M371.7 204.65 L371.7 201.95 379.35 201.95 379.35 204.65 371.7 204.65 M316.35 91.95 L316.35 98.95 314.0 98.95 314.0 91.95 316.35 91.95 M321.4 91.95 L321.4 98.95 319.05 98.95 319.05 91.95 321.4 91.95 M316.35 104.9 L316.35 111.9 314.0 111.9 314.0 104.9 316.35 104.9 M321.4 104.9 L321.4 111.9 319.05 111.9 319.05 104.9 321.4 104.9 M316.35 118.65 L316.35 125.65 314.0 125.65 314.0 118.65 316.35 118.65 M321.4 118.65 L321.4 125.65 319.05 125.65 319.05 118.65 321.4 118.65 M298.85 118.65 L298.85 125.65 296.5 125.65 296.5 118.65 298.85 118.65 M298.85 105.5 L298.85 112.5 296.5 112.5 296.5 105.5 298.85 105.5 M298.85 142.2 L298.85 149.2 296.5 149.2 296.5 142.2 298.85 142.2 M298.85 130.2 L298.85 137.2 296.5 137.2 296.5 130.2 298.85 130.2 M316.35 130.2 L316.35 137.2 314.0 137.2 314.0 130.2 316.35 130.2 M321.4 130.2 L321.4 137.2 319.05 137.2 319.05 130.2 321.4 130.2 M321.4 142.2 L321.4 149.2 319.05 149.2 319.05 142.2 321.4 142.2 M316.35 142.2 L316.35 149.2 314.0 149.2 314.0 142.2 316.35 142.2 M321.4 154.05 L321.4 161.05 319.05 161.05 319.05 154.05 321.4 154.05 M316.35 154.05 L316.35 161.05 314.0 161.05 314.0 154.05 316.35 154.05 M321.4 166.45 L321.4 173.45 319.05 173.45 319.05 166.45 321.4 166.45 M316.35 166.45 L316.35 173.45 314.0 173.45 314.0 166.45 316.35 166.45 M298.85 166.45 L298.85 173.45 296.5 173.45 296.5 166.45 298.85 166.45 M298.85 154.05 L298.85 161.05 296.5 161.05 296.5 154.05 298.85 154.05 M296.5 177.7 L298.85 177.7 298.85 184.7 296.5 184.7 296.5 177.7 M296.5 197.7 L296.5 190.7 298.85 190.7 298.85 197.7 296.5 197.7 M321.4 177.7 L321.4 184.7 319.05 184.7 319.05 177.7 321.4 177.7 M316.35 177.7 L316.35 184.7 314.0 184.7 314.0 177.7 316.35 177.7 M316.35 190.7 L316.35 197.7 314.0 197.7 314.0 190.7 316.35 190.7 M321.4 190.7 L321.4 197.7 319.05 197.7 319.05 190.7 321.4 190.7 M321.4 208.95 L319.05 208.95 319.05 201.95 321.4 201.95 321.4 208.95 M316.35 208.95 L314.0 208.95 314.0 201.95 316.35 201.95 316.35 208.95 M296.5 203.1 L298.85 203.1 298.85 210.1 296.5 210.1 296.5 203.1" fill="#ccffdd" fill-rule="evenodd" stroke="none"/>
    <path d="M236.25 121.75 L236.25 113.85 232.6 113.85 232.6 115.7 M749.6 182.85 L749.6 174.15 746.0 171.3 746.0 175.35 M744.2 169.9 L746.0 171.3 746.0 168.1 M766.45 223.0 L766.45 200.75 Q806.6 169.6 886.95 167.55 L886.95 223.0 M756.25 182.55 L756.25 179.35 753.25 177.0 753.25 180.15 M749.6 169.9 L749.6 174.15 753.25 177.0 753.25 172.35 M756.25 174.75 L756.25 179.35 758.05 180.75 M886.95 225.4 L766.45 225.4 766.45 223.0 M339.3 69.35 L339.25 57.25 339.25 52.4 339.25 43.35 338.65 44.9 338.05 46.4 338.05 70.25 M338.65 69.8 L338.65 46.4 M338.05 46.4 L338.05 42.75 M338.65 43.35 L338.65 44.9 M230.2 113.85 L232.6 113.85 232.6 111.45 M240.45 111.45 L240.45 113.85 242.85 113.85 242.85 111.45 M238.65 110.25 L238.65 113.85 240.45 113.85 240.45 115.05 M238.65 116.9 L238.65 113.85 236.25 113.85 236.25 109.65 M242.85 115.05 L242.85 113.85 244.65 113.85 244.65 109.65 M251.3 113.85 L247.7 113.85 247.7 116.3 M244.65 113.85 L247.7 113.85 247.7 109.65 M244.65 116.3 L244.65 113.85" fill="none" stroke="#7799ff" stroke-linecap="round" stroke-linejoin="round" stroke-width="1.0"/>
    <path d="M585.85 164.55 L565.85 164.55 565.85 158.55 M585.85 190.85 L565.85 190.85 565.85 184.85 M585.85 177.7 L565.85 177.7 565.85 171.7 M609.2 177.7 L589.2 177.7 589.2 171.7 M609.2 190.85 L589.2 190.85 589.2 184.85 M609.2 164.55 L589.2 164.55 589.2 158.55 M632.7 177.7 L612.7 177.7 612.7 171.7 M632.7 190.85 L612.7 190.85 612.7 184.85 M632.7 164.55 L612.7 164.55 612.7 158.55 M632.7 203.5 L612.7 203.5 612.7 197.5 M632.7 216.65 L612.7 216.65 612.7 210.65 M609.2 216.65 L589.2 216.65 589.2 210.65 M609.2 203.5 L589.2 203.5 589.2 197.5 M585.85 216.65 L565.85 216.65 565.85 210.65 M585.85 203.5 L565.85 203.5 565.85 197.5 M237.15 139.9 L217.15 139.9 217.15 133.9 M260.65 139.9 L240.65 139.9 240.65 133.9 M213.8 139.9 L193.8 139.9 193.8 133.9 M213.8 192.4 L193.8 192.4 193.8 186.4 M213.8 178.85 L193.8 178.85 193.8 172.85 M213.8 165.85 L193.8 165.85 193.8 159.85 M260.65 165.85 L240.65 165.85 240.65 159.85 M237.15 165.85 L217.15 165.85 217.15 159.85 M237.15 192.4 L217.15 192.4 217.15 186.4 M260.65 192.4 L240.65 192.4 240.65 186.4 M260.65 178.85 L240.65 178.85 240.65 172.85 M237.15 178.85 L217.15 178.85 217.15 172.85 M237.15 153.05 L217.15 153.05 217.15 147.05 M260.65 153.05 L240.65 153.05 240.65 147.05 M213.8 153.05 L193.8 153.05 193.8 147.05 M284.15 139.9 L264.15 139.9 264.15 133.9 M284.15 192.4 L264.15 192.4 264.15 186.4 M284.15 165.85 L264.15 165.85 264.15 159.85 M284.15 178.85 L264.15 178.85 264.15 172.85 M284.15 153.05 L264.15 153.05 264.15 147.05 M284.15 204.0 L264.15 204.0 264.15 198.0 M284.15 216.65 L264.15 216.65 264.15 210.65 M237.15 204.0 L217.15 204.0 217.15 198.0 M237.15 216.65 L217.15 216.65 217.15 210.65 M260.65 216.65 L240.65 216.65 240.65 210.65 M260.65 204.0 L240.65 204.0 240.65 198.0 M213.8 204.0 L193.8 204.0 193.8 198.0 M213.8 216.65 L193.8 216.65 193.8 210.65" fill="none" stroke="#ccffdd" stroke-linecap="round" stroke-linejoin="round" stroke-width="1.0"/>
  </g>
</svg>
